<svg xmlns="http://www.w3.org/2000/svg" viewBox="0 0 64 64">
  <rect width="64" height="64" rx="16" fill="#2563EB"/>
  <circle cx="34" cy="16" r="6" fill="#FFFFFF"/>
  <path fill="#FFFFFF" d="M18 28c0-4 3.2-7.2 7.2-7.2h17.6c4 0 7.2 3.2 7.2 7.2v1.2c0 2.4-2 4.4-4.4 4.4H38v5.2l8.8 8.8c1.8 1.8 1.8 4.6 0 6.4s-4.6 1.8-6.4 0L32 45.6 23.6 54c-1.8 1.8-4.6 1.8-6.4 0s-1.8-4.6 0-6.4l8.8-8.8v-5.2h-3.6c-2.4 0-4.4-2-4.4-4.4V28Z"/>
  <path fill="#93C5FD" d="M32 26.5c4.5 0 8.2 3.7 8.2 8.2S36.5 43 32 43s-8.2-3.7-8.2-8.2 3.7-8.3 8.2-8.3Zm0 5.5a2.8 2.8 0 1 0 0 5.6A2.8 2.8 0 0 0 32 32Z"/>
</svg>
