<svg xmlns="http://www.w3.org/2000/svg" viewBox="0 0 512 512" role="img" aria-labelledby="title description">
  <title id="title">GrowthKid</title>
  <desc id="description">A growing sprout in a nutrition bowl</desc>
  <rect x="16" y="16" width="480" height="480" rx="112" fill="#2563EB"/>
  <circle cx="256" cy="108" r="30" fill="#FBBF24"/>
  <path d="M256 280V204" fill="none" stroke="#86EFAC" stroke-width="28" stroke-linecap="round"/>
  <path d="M250 224c-46-2-78-28-82-72 44-2 78 24 88 66l-6 6Z" fill="#86EFAC"/>
  <path d="M262 230c46-4 78-32 82-76-46 0-80 26-88 68l6 8Z" fill="#34D399"/>
  <path d="M104 278h304c0 18-14 32-32 32H136c-18 0-32-14-32-32Z" fill="#FFFFFF"/>
  <path d="M128 316h256c-14 74-64 118-128 118s-114-44-128-118Z" fill="#FFFFFF"/>
  <path d="M194 354c17 19 37 28 62 28s45-9 62-28" fill="none" stroke="#2563EB" stroke-width="16" stroke-linecap="round"/>
</svg>
